<?xml version="1.0" encoding="UTF-8" standalone="no"?>
<!-- Created with Sodipodi ("http://www.sodipodi.com/") -->

<svg
   xmlns:dc="http://purl.org/dc/elements/1.1/"
   xmlns:cc="http://creativecommons.org/ns#"
   xmlns:rdf="http://www.w3.org/1999/02/22-rdf-syntax-ns#"
   xmlns:svg="http://www.w3.org/2000/svg"
   xmlns="http://www.w3.org/2000/svg"
   xmlns:xlink="http://www.w3.org/1999/xlink"
   xmlns:sodipodi="http://sodipodi.sourceforge.net/DTD/sodipodi-0.dtd"
   xmlns:inkscape="http://www.inkscape.org/namespaces/inkscape"
   id="svg101"
   sodipodi:version="0.32"
   width="210mm"
   height="595pt"
   sodipodi:docname="slug-logo.svg"
   inkscape:version="0.47 r22583"
   inkscape:output_extension="org.inkscape.output.svg.inkscape"
   inkscape:export-filename="/home/tansell/Downloads/slug-logo-large.png"
   inkscape:export-xdpi="362.90421"
   inkscape:export-ydpi="362.90421"
   version="1.1">
  <metadata
     id="metadata46">
    <rdf:RDF>
      <cc:Work
         rdf:about="">
        <dc:format>image/svg+xml</dc:format>
        <dc:type
           rdf:resource="http://purl.org/dc/dcmitype/StillImage" />
        <dc:title></dc:title>
      </cc:Work>
    </rdf:RDF>
  </metadata>
  <defs
     id="defs103">
    <inkscape:perspective
       sodipodi:type="inkscape:persp3d"
       inkscape:vp_x="0 : 371.875 : 1"
       inkscape:vp_y="0 : 1000 : 0"
       inkscape:vp_z="744.09448 : 371.875 : 1"
       inkscape:persp3d-origin="372.04724 : 247.91667 : 1"
       id="perspective48" />
    <linearGradient
       id="linearGradient199">
      <stop
         style="stop-color:#ffffff;stop-opacity:1;"
         offset="0.000000"
         id="stop200" />
      <stop
         style="stop-color:#000000;stop-opacity:1;"
         offset="1.000000"
         id="stop201" />
    </linearGradient>
    <linearGradient
       id="linearGradient194">
      <stop
         style="stop-color:#ffffff;stop-opacity:1;"
         offset="0.000000"
         id="stop195" />
      <stop
         style="stop-color:#000000;stop-opacity:1;"
         offset="1.000000"
         id="stop196" />
    </linearGradient>
    <linearGradient
       id="linearGradient318">
      <stop
         style="stop-color:#ffe577;stop-opacity:1;"
         offset="0.000000"
         id="stop319" />
      <stop
         style="stop-color:#eaaf32;stop-opacity:1;"
         offset="1.000000"
         id="stop320" />
    </linearGradient>
    <linearGradient
       id="linearGradient121">
      <stop
         style="stop-color:#ffffff;stop-opacity:1;"
         offset="0.000000"
         id="stop122" />
      <stop
         style="stop-color:#000000;stop-opacity:0;"
         offset="1.000000"
         id="stop123" />
    </linearGradient>
    <linearGradient
       id="linearGradient119">
      <stop
         style="stop-color:#f7c629;stop-opacity:1;"
         offset="0.000000"
         id="stop120" />
      <stop
         style="stop-color:#cf950d;stop-opacity:1;"
         offset="1.000000"
         id="stop121" />
    </linearGradient>
    <linearGradient
       xlink:href="#linearGradient199"
       id="linearGradient122"
       x1="0.537764"
       y1="0.55566"
       x2="0.0105354"
       y2="-0.247206"
       gradientUnits="objectBoundingBox"
       spreadMethod="pad" />
    <radialGradient
       xlink:href="#linearGradient119"
       id="radialGradient126"
       cx="0.776214"
       cy="-0.093477"
       fx="0.776214"
       fy="-0.093477"
       r="0.768545"
       gradientUnits="objectBoundingBox"
       gradientTransform="matrix(1,-1.32195e-05,-3.61866e-05,0.999999,7.82792e-08,-4.73533e-08)"
       spreadMethod="reflect" />
    <radialGradient
       xlink:href="#linearGradient119"
       id="radialGradient117"
       cx="0.753635"
       cy="0.191586"
       fx="0.753635"
       fy="0.191586"
       r="0.612356"
       gradientUnits="objectBoundingBox"
       spreadMethod="reflect" />
    <radialGradient
       xlink:href="#linearGradient119"
       id="radialGradient118"
       cx="0.495959"
       cy="0.124993"
       fx="0.495959"
       fy="0.124993"
       r="0.557287"
       gradientUnits="objectBoundingBox"
       spreadMethod="pad" />
    <radialGradient
       xlink:href="#linearGradient119"
       id="radialGradient119"
       cx="0.932591"
       cy="0.207936"
       fx="0.932591"
       fy="0.207936"
       r="0.735008"
       gradientUnits="objectBoundingBox"
       spreadMethod="pad" />
    <radialGradient
       xlink:href="#linearGradient119"
       id="radialGradient120"
       cx="0.363982"
       cy="0.48085"
       fx="0.363982"
       fy="0.48085"
       r="0.518477"
       gradientUnits="objectBoundingBox"
       spreadMethod="reflect" />
    <radialGradient
       xlink:href="#linearGradient318"
       id="radialGradient133"
       cx="0.859903"
       cy="0.718743"
       fx="0.859903"
       fy="0.718743"
       r="0.862691"
       gradientUnits="objectBoundingBox"
       spreadMethod="pad" />
    <radialGradient
       xlink:href="#linearGradient194"
       id="radialGradient193"
       cx="0.654203"
       cy="0.210932"
       fx="0.654203"
       fy="0.210932"
       r="0.200655"
       gradientUnits="objectBoundingBox"
       spreadMethod="pad" />
    <radialGradient
       xlink:href="#linearGradient194"
       id="radialGradient197"
       cx="0.636708"
       cy="0.267829"
       fx="0.636708"
       fy="0.267829"
       r="0.186449"
       gradientUnits="objectBoundingBox"
       spreadMethod="pad"
       gradientTransform="matrix(1,-1.04559e-06,1.04284e-07,1,2.40071e-08,1.83538e-07)" />
    <radialGradient
       xlink:href="#linearGradient194"
       id="radialGradient198"
       cx="165.16357"
       cy="303.74185"
       fx="165.16357"
       fy="303.74185"
       r="22.988061"
       gradientUnits="userSpaceOnUse"
       spreadMethod="pad"
       gradientTransform="scale(1.0231401,0.97738326)" />
    <linearGradient
       xlink:href="#linearGradient199"
       id="linearGradient202"
       x1="0.47524399"
       y1="0.59372699"
       x2="-0.108911"
       y2="-0.203125"
       gradientUnits="objectBoundingBox"
       spreadMethod="pad" />
    <filter
       inkscape:collect="always"
       id="filter3895">
      <feGaussianBlur
         inkscape:collect="always"
         stdDeviation="0.34236379"
         id="feGaussianBlur3897" />
    </filter>
    <radialGradient
       inkscape:collect="always"
       xlink:href="#linearGradient194"
       id="radialGradient3627"
       gradientUnits="userSpaceOnUse"
       gradientTransform="matrix(-0.92120796,0.97217416,-0.70946081,-0.67226735,536.62842,340.50017)"
       spreadMethod="pad"
       cx="61.293076"
       cy="224.55325"
       fx="61.293076"
       fy="224.55325"
       r="22.988061" />
  </defs>
  <sodipodi:namedview
     id="base"
     showborder="true"
     showgrid="false"
     inkscape:zoom="1.878646"
     inkscape:cx="122.43871"
     inkscape:cy="500.6548"
     inkscape:window-width="1252"
     inkscape:window-height="763"
     inkscape:window-x="20"
     inkscape:window-y="1"
     inkscape:current-layer="svg101"
     inkscape:window-maximized="0" />
  <path
     style="font-size:12;fill-rule:evenodd;stroke:#000000;stroke-width:4.35114543999999981;fill:url(#radialGradient3627);stroke-miterlimit:4;stroke-dasharray:none;stroke-linejoin:round;stroke-linecap:round;marker-start:none;filter:url(#filter3895)"
     d="M 685.078 700.374 C 664.369 692.562 665.015 691.504 643.556 684.405 C 629.086 679.866 602.064 669.756 592.326 665.181 C 579.568 660.84 562.1 638.928 537.864 617.634 C 517.62 603.168 500.408 589.091 474.601 575.16 C 461.745 566.225 430.783 554.141 417.097 552.62 C 407.499 550.085 384.194 545.379 376.399 545.379 C 356.791 546.56 352.191 545.379 342.875 546.9 C 330.276 548.928 319.887 553.731 309.732 553.731 C 304.345 553.731 292.153 553.257 289.686 551.404 C 286.4 548.937 276.711 546.748 274.089 543.617 C 270.958 539.877 277.188 528.252 277.188 520.68 C 277.188 513.446 268.179 463.704 268.179 456.34 C 268.179 448.546 267.165 443.284 267.165 435.489 C 267.165 427.694 267.165 419.899 267.165 412.103 C 267.165 404.308 267.165 396.513 267.165 388.717 C 267.165 379.947 265.495 376.071 265.495 367.002 C 265.495 359.73 262.154 353.34 262.154 346.957 C 262.154 342.151 260.566 332.774 260.095 326.81 C 258.914 319.32 258.216 317.826 255.574 308.537 C 253.495 301.693 253.733 304.528 250.664 297.149 C 247.884 291.002 245.922 290.83 241.519 284.089 C 237.132 276.784 230.927 271.358 225.691 267.57 C 220.898 263.021 219.774 262.885 209.476 256.957 C 203.16 254.252 196.271 251.955 194.258 251.152 C 189.046 248.839 183.647 248.292 182.361 246.571 C 181.4 245.285 183.863 241.917 184.479 237.545 C 185.96 232.177 188.7 225.414 191.65 218.926 C 193.782 213.062 196.643 208.568 197.295 204.972 C 198.93 199.208 205.122 191.9 208.009 186.395 C 210.187 182.948 216.011 170.532 225.16 158.69 C 234.782 147 240.984 159.523 244.614 160.706 C 250.413 162.006 254.053 158.529 254.148 153.863 C 255.549 143.127 245.495 130.445 244.632 129.701 C 233.506 116.82 228.514 114.184 222.064 113.833 C 215.779 112.915 213.005 123.267 214.893 129.803 C 218.452 140.08 224.038 138.457 218.723 146.997 C 217.119 150.098 214.526 154.708 212.328 158.486 C 209.819 162.376 203.078 175.049 200.534 178.347 C 197.286 183.147 193.539 189.553 191.489 194.46 C 190.633 196.51 186.732 204.96 185.601 206.642 C 182.727 212.674 179.578 220.476 178.329 222.469 C 175.548 227.498 172.715 233.952 172.339 235.63 C 170.661 243.133 169.319 246.052 159.84 245.342 C 154.436 245.176 154.184 245.839 147.874 244.572 C 142.118 242.443 144.486 236.008 143.554 230.028 C 142.807 227.097 142.957 227.505 141.496 219.719 C 140.704 216.711 138.977 210.862 134.713 201.04 C 130.955 190.99 131.18 193.702 128.133 187.086 C 124.592 180.084 121.896 175.495 118.109 171.361 C 115.246 167.59 100.308 154.317 100.308 150.034 C 100.308 149.402 98.7243 149.621 103.852 141.782 C 105.861 138.479 109.264 136.059 109.902 131.76 C 110.949 125.296 109.804 123.62 104.688 119.966 C 97.8746 115.86 88.215 122.837 79.6734 128.132 C 68.7436 137.75 64.5385 142.482 62.5812 146.649 C 61.2584 149.865 59.8192 160.804 70.0562 161.338 C 76.4158 161.08 82.8549 157.407 86.5786 155.776 C 91.8407 154.063 91.9382 156.149 93.3581 157.491 C 100.197 163.397 109.023 174.656 110.837 177.654 C 115.562 183.896 114.621 183.595 118.902 190.326 C 122.446 196.826 122.8 196.427 124.792 201.917 C 128.622 210.845 126.87 207.267 129.701 216.85 C 132.305 223.664 132.895 229.651 133.633 235.713 C 133.401 239.248 136.952 245.747 132.554 246.529 C 131.772 246.668 127.141 247.312 118.784 248.892 C 109.198 251.294 103.567 254.332 101.001 255.675 C 97.0142 257.763 90.2818 262.589 87.2496 265.208 C 84.6303 267.471 79.814 272 76.4636 276.239 C 74.6261 278.219 71.0094 283.922 69.0122 287.24 C 66.5799 292.037 64.9864 295.035 63.1657 300.185 C 61.4099 304.821 59.9614 310.895 58.6437 320.23 C 57.3503 329.598 56.6929 332.613 56.6929 340.275 C 56.6929 348.071 57.4845 356.297 57.9457 364.079 C 58.7809 371.124 59.5896 380.999 59.8249 385.168 C 60.6601 397.102 60.6601 396.307 61.9129 409.389 C 62.4344 414.748 64.3844 427.798 64.8361 435.489 C 65.4625 439.044 65.4811 443.607 65.4625 448.435 C 65.4389 451.628 66.4263 464.207 65.6713 468.897 C 64.8493 474.213 64.4185 475.407 63.7921 482.887 C 61.9145 495.362 62.3026 510.136 62.8386 524.328 C 63.6091 532.085 65.0073 572.739 65.0073 580.162 C 63.4633 591.61 63.7921 600.836 63.7921 608.378 C 63.7921 618.348 62.9569 617.933 60.8063 631.589 C 58.3007 645.975 57.9963 646.597 56.8151 651.685 C 55.1447 658.647 53.987 661.024 53.8188 678.164 C 54.1613 688.835 57.9275 718.216 60.738 726.002 C 64.341 737.607 70.2424 747.747 73.397 751.616 C 81.5631 762.53 96.1274 770.137 105.468 773.588 C 122.921 782.594 150.126 776.447 173.2 775.857 C 192.624 775.857 206.348 777.364 236.119 775.765 C 273.807 771.631 270.657 774.992 297.265 766.724 C 315.651 764.361 341.195 764.835 359.402 761.882 C 378.418 758.93 387.165 757.045 395.37 757.045 C 399.786 757.045 411.741 755.892 417.92 754.539 C 422.678 753.421 472.196 749.585 475.132 749.945 C 480.503 749.839 483.788 748.795 495.32 748.346 C 504.128 748.052 507.556 747.416 512.716 746.187 C 513.944 745.895 531.062 745.351 534.014 745.351 C 541.81 745.351 556.286 746.604 564.081 746.604 C 572.852 746.604 577.176 745.247 586.215 744.516 C 596.536 744.099 600.998 745.102 607.93 744.516 C 610.293 744.174 633.851 743.668 636.292 743.719 C 639.216 743.42 649.348 742.896 652.005 742.896 C 658.418 742.896 676.514 740.533 682.716 740.533 C 687.71 740.533 693.588 741.715 699.252 741.715 C 704.764 741.715 710.276 741.715 715.789 741.715 C 718.7 741.715 724.935 741.778 727.454 741.357 C 738.94 739.479 743.397 735.263 745.171 733.088 C 747.389 729.914 749.896 725.174 749.896 720.096 C 749.896 716.375 747.878 709.201 745.09 706.175 C 743.488 704.263 740.52 700.227 736.903 700.016 C 732.892 700.05 726.355 698.28 727.621 700.863 C 731.169 707.584 733.985 702.977 735.048 710.139 C 735.274 713.055 730.895 713.536 728.635 714.19 C 725.024 714.982 720.017 713.378 716.97 711.932 C 713.78 710.28 706.745 708.455 703.724 706.954 C 701.898 706.2 694.594 705.208 693.346 703.917 C 692.141 702.669 686.788 701.078 685.078 700.374 z "
     id="path227"
     sodipodi:nodetypes="ccccccccccccccccccccccccccccccccccccccccccccccccccccccccccccccccccccccccccccccccccccccccccccccccccccccsscccssssssssssss"
     transform="matrix(1.048,0,0,1.048,-46.7118,-96.8447)" />
  <path
     sodipodi:type="arc"
     style="font-size:12;fill:#ffffff;fill-rule:evenodd;stroke-width:1pt;fill-opacity:1"
     id="path214"
     d="M 106.035110 375.334656 A 24.623217 39.485886 0 1 0 56.788681,375.334656 A 24.6232 39.4859 0 1 0 106.035 375.335 L 81.411896 375.334656 z"
     sodipodi:cx="81.411896"
     sodipodi:cy="375.334656"
     sodipodi:rx="24.623217"
     sodipodi:ry="39.485886"
     transform="matrix(1.09428,-0.0424439,0.0428311,1.02951,-50.2045,-85.06)" />
  <path
     sodipodi:type="arc"
     style="font-size:12;fill:url(#radialGradient197);fill-rule:evenodd;stroke-width:1pt;"
     id="path211"
     d="M 108.697083 400.845215 A 14.640831 20.186584 0 1 0 79.415421,400.845215 A 14.6408 20.1866 0 1 0 108.697 400.845 L 94.056252 400.845215 z"
     sodipodi:cx="94.056252"
     sodipodi:cy="400.845215"
     sodipodi:rx="14.640831"
     sodipodi:ry="20.186584"
     transform="matrix(1.02133,-0.119694,0.160969,1.10175,-105.694,-129.28)" />
  <path
     sodipodi:type="arc"
     style="font-size:12;fill:#ffffff;fill-rule:evenodd;stroke-width:1pt;fill-opacity:1"
     id="path215"
     d="M 200.535034 374.225525 A 33.940117 42.813339 0 1 0 132.654785,374.225525 A 33.9401 42.8133 0 1 0 200.535 374.226 L 166.594910 374.225525 z"
     sodipodi:cx="166.594910"
     sodipodi:cy="374.225525"
     sodipodi:rx="33.940117"
     sodipodi:ry="42.813339"
     transform="matrix(1.02745,0,0,1.048,-24.3536,-95.6068)" />
  <path
     sodipodi:type="arc"
     style="font-size:12;fill:url(#radialGradient193);fill-rule:evenodd;stroke-width:1pt;"
     id="path213"
     d="M 185.450531 379.105774 A 17.968292 21.517593 0 1 0 149.513947,379.105774 A 17.9683 21.5176 0 1 0 185.451 379.106 L 167.482239 379.105774 z"
     sodipodi:cx="167.482239"
     sodipodi:cy="379.105774"
     sodipodi:rx="17.968292"
     sodipodi:ry="21.517593"
     transform="matrix(1.048,0,0,1.048,-28.4744,-95.6068)" />
  <path
     style="font-size:12;fill:url(#radialGradient133);fill-rule:evenodd;stroke:#000000;stroke-width:1pt;"
     d="M 197.014 436.223 C 196.31 436.926 192.916 439.36 189.642 441.399 C 183.94 444.277 175.193 447.36 168.623 450.968 C 163.29 454.819 159.405 456.301 151.995 461.32 C 146.494 464.626 145 466.026 142.427 467.124 C 138.832 468.993 132.852 471.232 131.291 471.673 C 128.789 472.379 124.528 473.555 114.193 473.085 C 112.368 473.085 100.605 471.636 95.056 467.438 C 93.278 466.13 86.7372 461.936 83.9192 459.281 C 80.048 455.782 74.09 448.583 69.3314 445.478 C 63.591 441.604 61.1894 440.649 58.3512 436.223 C 55.5413 431.595 56.562 431.863 55.5278 429.008 C 55.2247 425.842 56.8174 419.583 60.8104 415.755 C 69.9055 407.153 75.8209 401.374 81.0498 397.923 C 87.8977 392.685 91.184 391.095 94.7771 389.055 C 100.071 386.393 102.073 384.968 107.918 383.859 C 115.017 382.468 124.905 383.037 130.192 383.924 C 135.294 384.894 138.198 386.389 142.049 388.243 C 145.903 390.35 149.709 391.951 154.133 393.503 C 164.338 397.825 171.305 401.337 176.956 402.446 C 180.395 403.223 196.076 404.324 199.524 411.126 C 201.563 416.554 200.778 417.369 198.896 422.106 C 198.263 427.59 200.706 430.419 197.014 436.223 z "
     id="path220"
     sodipodi:nodetypes="cccccscsssssccccccccccc"
     transform="matrix(1.048,0,0,1.048,-28.4744,-95.6068)" />
  <path
     style="font-size:12;fill:url(#radialGradient126);fill-rule:evenodd;stroke:#ffd257;stroke-width:4.65458625000000037;stroke-linejoin:bevel;stroke-opacity:1;stroke-miterlimit:4;stroke-dasharray:none"
     d="M 223.037 497.663 C 227.097 494.202 246.29 479.168 271.798 478.77 C 292.103 479.72 299.485 488.927 301.155 489.149 C 302.801 489.566 309.228 494.749 309.228 496.502 C 309.228 497.564 300.072 531.374 298.059 538.87 C 296.273 544.838 290.001 564.372 284.901 582.289 C 282.936 588.257 280.256 601.749 278.777 594.323 C 277.382 590.109 270.179 562.775 262.068 549.007 C 257.562 540.897 247.369 523.786 238.751 514.032 C 232.148 506.935 223.037 499.483 223.037 497.663 z "
     id="path112"
     sodipodi:nodetypes="cccccccccc"
     transform="matrix(1.46464,1.75385,-0.51458,1.21727,274.751,-685.33)" />
  <path
     style="font-size:12;fill:url(#radialGradient119);fill-rule:evenodd;stroke:#ffd257;stroke-width:5.21523198000000043;stroke-linejoin:bevel;stroke-opacity:1;stroke-miterlimit:4;stroke-dasharray:none"
     d="M 213.198 491.294 C 216.958 490.716 241.29 493.589 267.212 496.48 C 280.019 497.563 304.735 498.269 306.405 498.491 C 309.699 497.29 309.211 500.113 309.211 501.866 C 309.211 502.928 309.063 513.717 306.746 528.277 C 304.242 541.86 300.327 552.553 296.177 561.445 C 292.48 568.247 287.983 576.274 285.288 581.115 C 282.801 584.997 279.315 592.289 277.836 584.863 C 276.441 580.649 270.179 562.775 262.068 549.007 C 257.562 540.897 247.212 524.267 238.751 514.032 C 232.148 506.935 215.835 494.165 213.198 491.294 z "
     id="path114"
     sodipodi:nodetypes="ccccccccccc"
     transform="matrix(-0.49576,-1.1743,1.65915,-0.384645,-203.455,1004.32)" />
  <path
     style="font-size:12;fill:url(#radialGradient118);fill-rule:evenodd;stroke:#ffd257;stroke-width:7.27814885000000000;stroke-linejoin:bevel;stroke-opacity:1;stroke-miterlimit:4;stroke-dasharray:none"
     d="M 223.037 497.663 C 226.433 495.921 242.83 494.577 268.338 494.179 C 288.643 495.129 304.499 498.99 306.169 499.212 C 307.815 499.629 309.211 500.113 309.211 501.866 C 309.211 502.928 298.059 537.071 298.059 538.87 C 297.768 538.87 292.515 553.648 289.383 562.844 C 287.383 570.153 283.359 576.739 283.359 577.901 C 282.889 577.901 279.32 588.861 277.841 581.435 C 276.446 577.221 270.179 562.775 262.068 549.007 C 257.562 540.897 247.369 523.786 238.751 514.032 C 232.148 506.935 223.037 499.483 223.037 497.663 z "
     id="path230"
     sodipodi:nodetypes="ccccccccccc"
     transform="matrix(1.048,0,0,1.048,-28.4744,-95.6068)" />
  <path
     style="font-size:12;fill:url(#radialGradient117);fill-rule:evenodd;stroke:#ffd257;stroke-width:5.56810331999999963;stroke-linejoin:bevel;stroke-opacity:1;stroke-miterlimit:4;stroke-dasharray:none"
     d="M 222.018 498.285 C 225.414 496.543 242.779 493.706 268.338 494.179 C 288.643 495.129 294.356 497.424 300.205 499.449 C 301.231 499.891 307.162 501.772 309.068 503.326 C 309.564 508.272 299.004 536.211 298.059 538.87 C 297.361 540.429 293.023 553.834 289.383 562.844 C 287.383 570.153 283.359 576.739 283.359 577.901 C 282.889 577.901 279.32 588.861 277.841 581.435 C 276.446 577.221 270.179 562.775 262.068 549.007 C 257.562 540.897 246.625 523.816 238.007 514.062 C 232.373 506.515 222.018 500.105 222.018 498.285 z "
     id="path113"
     sodipodi:nodetypes="ccccccccccc"
     transform="matrix(1.24464,0.0597744,-0.07224,1.5042,22.0135,-379.897)" />
  <path
     style="font-size:12;fill-rule:evenodd;stroke-width:0;"
     d="M 129.251 389.479 C 124.65 389.165 123.604 390.819 123.604 391.362 C 122.407 391.362 124.241 393.723 127.055 392.773 C 128.747 392.773 130.663 394.086 131.447 394.342 C 134.127 394.656 135.022 396.694 136.31 396.694 C 138.639 396.067 137.408 394.826 136.781 393.558 C 136.153 392.178 133.117 390.263 129.251 389.479 z "
     id="path223"
     sodipodi:nodetypes="ccccccc"
     transform="matrix(1.048,0,0,1.048,-28.4744,-95.6068)" />
  <path
     style="font-size:12;fill-rule:evenodd;stroke-width:0;stroke-opacity:0.991379;"
     d="M 104.625 391.048 C 104.368 390.875 103.45 391.14 102.585 391.362 C 102.039 391.362 100.52 392.205 99.9651 392.708 C 99.4592 393.263 97.6164 394.342 97.8795 395.126 C 97.8795 395.174 97.5108 396.832 99.2263 396.492 C 100.717 395.237 100.644 394.609 101.893 394.12 C 103.147 393.621 104.515 393.244 105.095 393.244 C 106.234 392.278 104.729 391.152 104.625 391.048 z "
     id="path224"
     transform="matrix(1.048,0,0,1.048,-31.1046,-93.6342)"
     sodipodi:nodetypes="cccccccc" />
  <path
     style="font-size:12;fill:#ffd672;fill-rule:evenodd;stroke:#000000;stroke-width:1pt;"
     d=""
     id="path297"
     transform="matrix(1.048,0,0,1.048,-77.0628,-87.005)"
     sodipodi:nodetypes="c" />
  <path
     style="font-size:12;fill:url(#radialGradient120);fill-rule:evenodd;stroke-width:0;"
     d="M 185.086 417.242 C 182.929 419.993 181.122 421.442 174.343 425.322 C 158.999 435.106 150.844 438.916 141.192 443.236 C 134.115 445.903 124.251 448.893 106.683 449.353 C 89.0144 449.824 84.3936 446.54 71.971 439.249 C 70.0854 438.422 62.8674 433.642 58.9382 431.8 C 55.705 430.414 56.0162 427.331 56.3453 431.676 C 60.0255 438.99 63.9236 441.715 69.6646 445.589 C 74.4226 448.694 80.3806 455.893 84.2516 459.392 C 87.0696 462.047 93.6106 466.241 95.3886 467.549 C 100.938 471.747 112.701 473.196 114.526 473.196 C 124.861 473.666 129.122 472.49 131.624 471.784 C 133.185 471.343 139.165 469.104 142.76 467.235 C 145.333 466.137 146.827 464.737 152.328 461.431 C 159.738 456.412 163.623 454.93 168.956 451.079 C 175.526 447.471 184.273 444.388 189.975 441.51 C 193.249 439.471 196.643 437.037 197.347 436.334 C 201.039 430.53 198.596 427.701 199.229 422.217 C 199.615 419.738 200.726 418.128 199.777 417.009 C 200.613 416.368 197.144 417.033 195.657 418.474 C 191.219 420.359 188.124 415.011 185.086 417.242 z "
     id="path317"
     sodipodi:nodetypes="ccccccccccccccccccccc"
     transform="matrix(1.048,0,0,1.048,-28.4744,-95.6068)" />
  <path
     style="font-size:12;fill:none;fill-rule:evenodd;stroke:#000000;stroke-width:1.25;stroke-linecap:round;"
     d="M 185.564 417.159 C 183.31 420.005 180.789 421.331 174.01 425.211 C 158.666 434.995 150.511 438.805 140.859 443.125 C 133.782 445.792 123.918 448.782 106.35 449.242 C 88.6817 449.713 84.8373 446.873 72.4147 439.582 C 68.6436 437.927 67.0034 435.328 55.8951 430.004 "
     id="path222"
     sodipodi:nodetypes="cscccc"
     transform="matrix(1.048,0,0,1.048,-28.4744,-95.6068)" />
</svg>
